<svg width="256" height="256" viewBox="0 0 256 256" fill="none" xmlns="http://www.w3.org/2000/svg">
<circle cx="128" cy="128" r="128" fill="#B4A4D6"/>
<path d="M123.245 70.6353C124.741 66.0287 131.259 66.0287 132.755 70.6353L143.042 102.296C143.712 104.356 145.632 105.751 147.798 105.751H181.088C185.931 105.751 187.945 111.949 184.027 114.796L157.094 134.363C155.342 135.636 154.609 137.893 155.278 139.953L165.565 171.614C167.062 176.221 161.79 180.051 157.871 177.204L130.939 157.637C129.186 156.364 126.814 156.364 125.061 157.637L98.129 177.204C94.2104 180.051 88.938 176.221 90.4347 171.614L100.722 139.953C101.391 137.893 100.658 135.636 98.9055 134.363L71.9734 114.796C68.0549 111.949 70.0687 105.751 74.9124 105.751H108.202C110.368 105.751 112.288 104.356 112.958 102.296L123.245 70.6353Z" fill="#FAFAFA"/>
</svg>
